<?xml version="1.0" standalone="no"?><!DOCTYPE svg PUBLIC "-//W3C//DTD SVG 1.1//EN" "http://www.w3.org/Graphics/SVG/1.1/DTD/svg11.dtd"><svg t="1503756976024" class="icon" style="" viewBox="0 0 1025 1024" version="1.1" xmlns="http://www.w3.org/2000/svg" p-id="3479" xmlns:xlink="http://www.w3.org/1999/xlink" width="64.0625" height="64"><defs><style type="text/css"></style></defs><path d="M513.841727 3.478817c281.170264 0 510.36291 229.192646 510.362909 510.36291 0 280.965627-229.192646 510.158273-510.362909 510.158273-280.965627 0-510.158273-229.192646-510.158274-510.158273S232.876099 3.478817 513.841727 3.478817z m-326.599521 165.755396c0 29.467626 3.478817 65.074341 28.035172 74.48761 5.115907 1.841727 13.915268-2.250999 20.668265-2.251 40.313349-19.440448 75.306155-22.714628 153.067946-28.853717l124.828138-75.306155c0.204636-22.714628-3.683453-80.626699-12.073542-94.951239-92.290967-14.119904-236.968825 42.359712-314.525979 126.874501zM541.467626 36.834532c-11.254996 24.965627-1.023181 68.348521 6.957634 110.298961 49.317346 13.301359 100.681055 35.606715 133.422862 60.981615 40.108713 0 79.603517 3.478817 119.916866 12.073541 7.571543-22.100719 11.254996-65.278977 9.208633-74.896882-65.074341-62.823341-163.913669-104.978417-269.505995-108.457235z m174.145484 736.690648c-17.189448 37.653078-46.043165 89.426059-96.179057 144.473221 15.552358 23.533173 31.309353 41.95044 46.86171 52.591527 105.183054-52.591527 190.516387-106.820144 236.559553-192.358113-12.892086-29.672262-33.355715-52.591527-59.139888-71.418066-39.290168 25.784173-85.53797 49.931255-128.102318 66.711431zM191.539568 746.922462l-58.116706 41.95044C193.381295 884.028777 268.073541 943.373301 396.380496 970.385292l23.1239-39.699441c-26.193445-44.201439-52.591527-88.198241-78.989608-132.39968-46.861711-6.343725-95.769784-20.258993-148.97522-51.363709z m251.498002-65.07434l-64.665068 102.522781c13.096723 46.452438 35.402078 92.904876 66.916067 139.561951 55.865707-4.297362 103.136691-4.297362 146.519584-2.250999 24.351719-45.838529 54.63789-91.472422 97.611511-137.310952-23.328537-33.355715-40.313349-66.711431-51.159072-100.067146-62.414069 12.68745-126.669864 15.756994-195.223022-2.455635zM40.313349 446.721023c1.432454 207.705835 28.649081 277.896083 76.738609 313.298162l60.776979-27.011991c-4.297362-56.479616-6.752998-112.959233-4.911271-169.438849-27.830536-47.47562-46.452438-94.951239-55.661071-142.426858-28.853717-0.818545-54.433253 7.776179-76.943246 25.579536z m944.805756-18.621902c-22.509992-16.166267-49.726619-11.664269-76.738609-13.915268-5.115907 28.035172-18.621902 56.070344-36.015988 83.900879l-15.143085 190.721023c34.992806 16.984812 46.657074 41.131894 69.780975 65.074341 45.633893-99.657874 68.553157-201.36211 58.116707-325.780975z m-294.06235-185.809752l-34.992806 87.993605c48.908074 49.726619 72.236611 108.047962 83.900879 170.257394l113.368505-4.706635c4.911271-38.676259 19.031175-77.147882 42.564349-115.824141L832.255795 253.749001c-43.996803-6.752998-91.063149-10.641087-141.19904-11.459632z m-227.35092 102.522781c-41.131894 53.205436-65.074341 117.051958-79.808153 191.539569 15.552358 44.610711 41.95044 85.742606 73.464428 124.828137 56.684253 4.706635 113.982414 5.934452 173.326939 0 31.923261-38.06235 60.981615-82.673062 82.263789-144.882494-13.505995-62.618705-37.653078-119.916867-72.236611-171.894484l-95.155875-1.841727-81.854517 2.250999z m-66.916067-105.183053c-68.757794-1.023181-168.82494 15.143086-194.813749 38.676259C175.98721 301.633893 153.477218 357.090328 137.515588 404.770584c16.984812 56.684253 38.880895 107.229416 68.143884 149.179856 45.22462-22.509992 100.067146-33.560352 157.365308-41.336531 13.096723-68.348521 37.243805-127.283773 67.529976-180.898481-7.776179-31.923261-19.031175-62.618705-33.764988-92.086331z" p-id="3480"></path></svg>