<?xml version="1.0" standalone="no"?><!DOCTYPE svg PUBLIC "-//W3C//DTD SVG 1.1//EN" "http://www.w3.org/Graphics/SVG/1.1/DTD/svg11.dtd"><svg t="1503756819647" class="icon" style="" viewBox="0 0 1024 1024" version="1.1" xmlns="http://www.w3.org/2000/svg" p-id="2048" xmlns:xlink="http://www.w3.org/1999/xlink" width="64" height="64"><defs><style type="text/css"></style></defs><path d="M939.654737 512v414.666105c0 9.957053-8.097684 18.054737-18.054737 18.054737H102.4c-9.957053 0-18.054737-8.097684-18.054737-18.054737L79.090526 516.419368c0-16.599579-21.504-24.899368-38.117052-24.899368s-40.084211 8.299789-40.084211 24.899368v428.301474a78.282105 78.282105 0 0 0 78.201263 78.18779h866.196211a78.282105 78.282105 0 0 0 78.201263-78.18779V516.419368c0-16.599579-23.821474-24.899368-40.434526-24.899368-16.613053 0-43.385263 3.866947-43.385263 20.48zM538.300632 828.011789c7.693474 0 15.400421-2.937263 21.261473-8.811789l264.407579-281.505684c11.749053-11.749053 11.749053-34.425263 0-46.174316-11.735579-11.749053-47.858526-11.749053-59.607579 0l-184.32 204.8V20.48C580.055579 3.866947 556.678737 0 540.065684 0c-16.613053 0-42.536421 3.866947-42.536421 20.48v675.84l-224.673684-204.8c-11.735579-11.749053-47.494737-11.749053-59.24379 0-11.749053 11.749053-11.749053 34.425263 0 46.174316L517.039158 819.2a29.978947 29.978947 0 0 0 21.274947 8.811789z" fill="#4A4A4A" p-id="2049"></path></svg>